<svg xmlns="http://www.w3.org/2000/svg" viewBox="0 0 64 64" width="64" height="64" role="img">
  <title>Canary icon — dark variant</title>
  <desc>Geometric canary bird mark on obsidian background</desc>
  <rect width="64" height="64" rx="10" fill="#0A0A0A"/>
  <g transform="translate(7,-9)">
  <!-- Body -->
  <polygon points="14,52 26,28 40,26 42,48 32,58 18,60" fill="#F0C040"/>
  <!-- Wing upper -->
  <polygon points="26,28 40,26 50,14 38,24 30,30" fill="#D4A820"/>
  <!-- Wing lower -->
  <polygon points="14,52 26,44 32,58 18,60" fill="#B8901A"/>
  <!-- Tail -->
  <polygon points="42,48 50,56 44,62 38,56 42,52" fill="#D4A820"/>
  <polygon points="44,62 50,68 42,66 40,58" fill="#C09018"/>
  <!-- Head -->
  <circle cx="14" cy="40" r="10" fill="#F0C040"/>
  <!-- Eye -->
  <circle cx="10" cy="37" r="3" fill="#0A0A0A"/>
  <circle cx="9" cy="36" r="1" fill="#F0C040"/>
  <!-- Beak -->
  <polygon points="4,39 0,42 4,44" fill="#E8B830"/>
  <!-- Black Canary band -->
  <rect x="6" y="44" width="16" height="4" rx="1" fill="#000" opacity="0.4"/>
  </g>
</svg>
